<?xml version="1.0" encoding="UTF-8"?>
<svg id="Layer_2" data-name="Layer 2" xmlns="http://www.w3.org/2000/svg" viewBox="0 0 162.65 175.24">
  <defs>
    <style>
      .cls-1 {
        fill: #1b361a;
        fill-rule: evenodd;
        stroke-width: 0px;
      }
    </style>
  </defs>
  <g id="New_Layer" data-name="New Layer">
    <path class="cls-1" d="M0,87.62v87.62h162.65V0H0v87.62ZM82.29,26.29l-.05,17.99-.84.28c-.46.17-1.81.86-2.98,1.54s-5.98,3.46-10.67,6.16c-11.49,6.64-12.27,7.11-12.74,7.6-.23.23-.5.43-.61.43s-1.01-.48-2-1.04c-1.69-.99-8.91-5.17-17.61-10.19-2.14-1.23-4.75-2.73-5.8-3.35s-2.75-1.59-3.76-2.17c-1.04-.6-1.87-1.18-1.87-1.31s.7-.91,1.54-1.74c1.11-1.08,2-1.77,3.26-2.5,2.9-1.69,14.66-8.46,17.47-10.09,2.68-1.54,7.07-4.07,18.72-10.82,5.83-3.38,8.43-4.87,11.93-6.87.63-.36,1.41-.78,1.74-.91,1.01-.43,3.05-.99,3.69-1.01l.61-.02-.03,18v.02ZM86.43,8.55c1.41.35,3.54,1.34,6.08,2.83,1.09.65,3.26,1.89,4.8,2.78,3.03,1.74,4.11,2.37,12.34,7.12,2.96,1.72,6.58,3.79,8.03,4.64s3.4,1.95,4.31,2.48,5.27,3.05,9.69,5.6c4.42,2.53,8.38,4.89,8.8,5.18.93.68,2.96,2.82,2.96,3.1-.02.1-2.72,1.76-6.01,3.64-5.66,3.25-7.44,4.27-12.62,7.27-9.46,5.47-12.02,6.94-12.26,7.02-.17.07-.46-.08-.8-.4-.3-.28-2.62-1.71-5.17-3.18-5.02-2.92-6.43-3.73-14.33-8.28-5.38-3.11-6.99-3.98-7.49-3.98-.28,0-.3-.98-.3-18.05V8.28h.41c.23,0,.93.12,1.54.27h.02ZM26.3,46.64c2.15,1.24,4.64,2.68,5.5,3.18s5.9,3.4,11.16,6.44,9.77,5.66,9.99,5.8c.28.18.36.35.27.53-.07.15-.17,3.84-.22,8.2l-.08,7.93-2.9.03c-6.69.1-12.22,1.42-17.92,4.34-3.56,1.81-6.39,3.96-9.41,7.14l-1.82,1.92.03-22.44c.05-20.89.07-22.49.35-23.27.48-1.42.78-2.05.96-2.05.08,0,1.94,1.01,4.09,2.25ZM145.09,45.33c.86,2.27.83,1.23.83,33.09,0,25.33-.03,29.88-.25,30.86-.25,1.19-.84,2.96-1.04,3.08-.07.03-.83-.35-1.69-.84-1.76-1.03-2.62-1.52-12.84-7.42-3.91-2.27-7.87-4.54-8.78-5.07s-3.06-1.77-4.77-2.75l-3.11-1.79.13-.58c.17-.75.17-30.38,0-31.14l-.12-.58,3.35-1.9c1.84-1.04,4.06-2.32,4.92-2.83,1.49-.86,5.33-3.08,17.57-10.15,2.78-1.61,5.13-2.92,5.25-2.92.1,0,.35.43.55.94h0ZM76.11,54.08c1.67.89,3.89,2.93,5.25,4.8,2.27,3.15,3.41,7.55,2.98,11.46-.1.96-.23,1.79-.27,1.84-.05.03-.55-.08-1.13-.28-.58-.18-1.41-.4-1.87-.46l-.83-.15.07-2.05c.03-1.69-.02-2.35-.3-3.56-.83-3.45-2.7-6.01-5.91-8.1-.81-.53-1.14-1.09-1.13-1.92.03-.76.38-1.31,1.11-1.69.73-.4,1.09-.36,2.02.12h0ZM101.98,70.41c1.64.22,3.94.98,5.43,1.77.88.48,1.23.78,1.46,1.23.4.8.23,1.64-.41,2.29-.76.76-1.39.8-2.82.12-2.19-1.06-3.18-1.31-5.37-1.41-3.38-.13-6.05.7-8.53,2.63l-.61.48-1.42-1.44c-.8-.78-1.37-1.49-1.31-1.56.65-.58,2.62-1.94,3.54-2.4,3.21-1.61,6.59-2.19,10.04-1.71ZM81.41,73.69c4.97,1.28,9.11,5.32,10.52,10.29.51,1.77.63,4.8.27,6.61-1.14,5.65-5.22,9.97-10.78,11.46-1.79.48-4.92.53-6.79.08-5.18-1.19-9.39-5.15-10.87-10.24-.55-1.87-.61-5.2-.17-7.25.88-3.93,3.56-7.54,7.07-9.49,1.33-.75,3.61-1.56,5-1.77,1.41-.22,4.24-.07,5.75.31ZM55.75,81.24c1.82.25,5.47,1.03,5.88,1.26.25.13.25.23-.07,1.26-.28.94-.35,1.61-.35,4.02-.02,2.7.02,3.01.45,4.55.55,1.92,1.62,4.09,2.75,5.58.84,1.11,3.21,3.45,3.49,3.45.36,0,.12.35-1.11,1.54-7.12,6.89-16.8,11.93-26.35,13.68-3.79.71-6.16.88-10.63.8-4.22-.07-7.22-.38-10.1-1.04-1.86-.43-3-1.33-3.68-2.88-.55-1.23-.25-4.19.8-8.12,2.45-9.29,8.35-16.46,17.01-20.7,4.37-2.14,8.63-3.28,13.78-3.71,1.49-.12,6.43.07,8.13.31ZM119.97,100.72c4.12,2.37,8.5,4.9,9.72,5.61s4.8,2.78,7.93,4.59c3.15,1.82,5.75,3.4,5.78,3.49.08.27-2.24,2.63-3.28,3.35-.84.56-2.02,1.26-9.14,5.37-1.54.88-4.02,2.32-5.55,3.2-1.54.88-3.89,2.25-5.27,3.03-2.65,1.54-3.81,2.2-12.16,7.02-2.95,1.71-5.38,3.06-5.43,3.01-.03-.03.12-.61.36-1.29.65-1.76,1.36-4.74,1.64-6.89.46-3.3.28-8.71-.4-11.71-1.13-5.07-2.65-9.01-4.95-12.82-.81-1.34-.99-1.76-.81-1.86.12-.08,2.96-1.74,6.33-3.68,3.35-1.92,6.41-3.79,6.79-4.12.36-.33.75-.61.81-.63.07,0,3.49,1.94,7.62,4.32h0ZM92.44,101.13c5.68,6.21,9.14,13.71,10.1,21.9.28,2.34.1,7.29-.35,9.64-.94,4.99-3.11,9.69-6.41,13.86-2.09,2.65-6.43,6.54-8.2,7.34-1.62.73-3.71.25-5.12-1.19-1.26-1.31-3.48-4.16-5.07-6.56-6.21-9.34-9.24-20.54-8.53-31.55.12-1.66.31-3.73.45-4.59.3-1.94,1.24-6.34,1.39-6.61.08-.13.63-.02,1.87.38,5.15,1.69,10.4.91,14.96-2.24.65-.43,1.52-1.18,1.97-1.62.54-.55.94-.73,1.19-.53.22.17.99.96,1.74,1.77h.01ZM64.33,113.19l2.3,1.34.02,3.26c.02,1.81.02,3.28-.02,3.28s-1.92-1.09-4.22-2.42-4.99-2.87-5.96-3.43c-.96-.56-1.74-1.06-1.69-1.13.03-.07.76-.5,1.61-.94s2.05-1.16,2.7-1.57l1.14-.75.91.51c.5.28,1.95,1.11,3.21,1.84h0ZM50.1,117.81c2.42,1.39,10.14,5.85,13.25,7.65,1.37.8,2.88,1.67,3.36,1.94.6.35.89.63.96.93.91,3.98,2.07,7.65,3.3,10.48l.73,1.66-.25.78c-1.26,3.73-4.57,6.74-8.45,7.67-1.19.28-1.82.33-3.3.27-2.96-.13-2.77-.03-13.28-6.13-2.22-1.29-5.07-2.93-8.07-4.65-1.95-1.13-2.87-1.87-3.81-3.08-1.69-2.19-2.42-4.16-2.55-6.87-.1-2.19.27-3.94,1.21-5.8.61-1.23,1.94-3.05,2.29-3.13.12-.03,1.33-.22,2.68-.41,2.98-.43,6.24-1.16,8.28-1.82.83-.27,1.57-.48,1.66-.5.1,0,.99.46,1.99,1.03v-.02ZM33.82,137.71c.68.66,1.76,1.51,2.39,1.89l1.14.66-.05,1.23c-.12,2.37.8,4.85,2.42,6.63,1.23,1.33,2.6,2.2,4.29,2.72,2.5.8,5.57.36,7.77-1.09l.94-.61.93.55c.91.56,3.69,1.56,4.32,1.56.18,0,.33.05.33.1,0,.48-2.29,2.53-3.89,3.48-1.23.75-3.21,1.52-4.59,1.81-1.59.35-4.9.35-6.38,0-5.86-1.34-10.24-5.78-11.56-11.71-.4-1.82-.3-5.17.23-7.06.22-.75.4-1.36.43-1.36.02,0,.6.55,1.28,1.23v-.03ZM37.05,156.16c.56.38,1.59.98,2.27,1.29.7.31,1.26.61,1.26.66s-.13.3-.3.53c-.17.25-.75,1.23-1.28,2.19-1.13,2.04-1.29,2.24-2.1,2.75-1.18.75-2.85.35-3.69-.88-.31-.48-.41-.83-.41-1.54,0-.84.1-1.11,1.42-3.43.89-1.56,1.51-2.48,1.62-2.42.1.07.65.45,1.21.84h0Z"/>
  </g>
</svg>