<?xml version="1.0" encoding="UTF-8"?>
<svg id="New_Layer" data-name="New Layer" xmlns="http://www.w3.org/2000/svg" viewBox="0 0 449.03 175.55">
  <defs>
    <style>
      .cls-1 {
        fill: #1b361a;
        fill-rule: evenodd;
        stroke-width: 0px;
      }
    </style>
  </defs>
  <path class="cls-1" d="M0,87.62v87.62h162.65V0H0v87.62ZM82.29,26.29l-.05,17.99-.84.28c-.46.17-1.81.86-2.98,1.54s-5.98,3.46-10.67,6.16c-11.49,6.64-12.27,7.11-12.74,7.6-.23.23-.5.43-.61.43s-1.01-.48-2-1.04c-1.69-.99-8.91-5.17-17.61-10.19-2.14-1.23-4.75-2.73-5.8-3.35s-2.75-1.59-3.76-2.17c-1.04-.6-1.87-1.18-1.87-1.31s.7-.91,1.54-1.74c1.11-1.08,2-1.77,3.26-2.5,2.9-1.69,14.66-8.46,17.47-10.09,2.68-1.54,7.07-4.07,18.72-10.82,5.83-3.38,8.43-4.87,11.93-6.87.63-.36,1.41-.78,1.74-.91,1.01-.43,3.05-.99,3.69-1.01l.61-.02-.03,18ZM86.43,8.55c1.41.35,3.54,1.34,6.08,2.83,1.09.65,3.26,1.89,4.8,2.78,3.03,1.74,4.11,2.37,12.34,7.12,2.96,1.72,6.58,3.79,8.03,4.64s3.4,1.95,4.31,2.48,5.27,3.05,9.69,5.6c4.42,2.53,8.38,4.89,8.8,5.18.93.68,2.96,2.82,2.96,3.1-.02.1-2.72,1.76-6.01,3.64-5.66,3.25-7.44,4.27-12.62,7.27-9.46,5.47-12.02,6.94-12.26,7.02-.17.07-.46-.08-.8-.4-.3-.28-2.62-1.71-5.17-3.18-5.02-2.92-6.43-3.73-14.33-8.28-5.38-3.11-6.99-3.98-7.49-3.98-.28,0-.3-.98-.3-18.05V8.28h.41c.23,0,.93.12,1.54.27ZM26.3,46.64c2.15,1.24,4.64,2.68,5.5,3.18s5.9,3.4,11.16,6.44,9.77,5.66,9.99,5.8c.28.18.36.35.27.53-.07.15-.17,3.84-.22,8.2l-.08,7.93-2.9.03c-6.69.1-12.22,1.42-17.92,4.34-3.56,1.81-6.39,3.96-9.41,7.14l-1.82,1.92.03-22.44c.05-20.89.07-22.49.35-23.27.48-1.42.78-2.05.96-2.05.08,0,1.94,1.01,4.09,2.25ZM145.09,45.33c.86,2.27.83,1.23.83,33.09,0,25.33-.03,29.88-.25,30.86-.25,1.19-.84,2.96-1.04,3.08-.07.03-.83-.35-1.69-.84-1.76-1.03-2.62-1.52-12.84-7.42-3.91-2.27-7.87-4.54-8.78-5.07s-3.06-1.77-4.77-2.75l-3.11-1.79.13-.58c.17-.75.17-30.38,0-31.14l-.12-.58,3.35-1.9c1.84-1.04,4.06-2.32,4.92-2.83,1.49-.86,5.33-3.08,17.57-10.15,2.78-1.61,5.13-2.92,5.25-2.92.1,0,.35.43.55.94ZM76.11,54.08c1.67.89,3.89,2.93,5.25,4.8,2.27,3.15,3.41,7.55,2.98,11.46-.1.96-.23,1.79-.27,1.84-.05.03-.55-.08-1.13-.28-.58-.18-1.41-.4-1.87-.46l-.83-.15.07-2.05c.03-1.69-.02-2.35-.3-3.56-.83-3.45-2.7-6.01-5.91-8.1-.81-.53-1.14-1.09-1.13-1.92.03-.76.38-1.31,1.11-1.69.73-.4,1.09-.36,2.02.12ZM101.98,70.41c1.64.22,3.94.98,5.43,1.77.88.48,1.23.78,1.46,1.23.4.8.23,1.64-.41,2.29-.76.76-1.39.8-2.82.12-2.19-1.06-3.18-1.31-5.37-1.41-3.38-.13-6.05.7-8.53,2.63l-.61.48-1.42-1.44c-.8-.78-1.37-1.49-1.31-1.56.65-.58,2.62-1.94,3.54-2.4,3.21-1.61,6.59-2.19,10.04-1.71ZM81.41,73.69c4.97,1.28,9.11,5.32,10.52,10.29.51,1.77.63,4.8.27,6.61-1.14,5.65-5.22,9.97-10.78,11.46-1.79.48-4.92.53-6.79.08-5.18-1.19-9.39-5.15-10.87-10.24-.55-1.87-.61-5.2-.17-7.25.88-3.93,3.56-7.54,7.07-9.49,1.33-.75,3.61-1.56,5-1.77,1.41-.22,4.24-.07,5.75.31ZM55.75,81.24c1.82.25,5.47,1.03,5.88,1.26.25.13.25.23-.07,1.26-.28.94-.35,1.61-.35,4.02-.02,2.7.02,3.01.45,4.55.55,1.92,1.62,4.09,2.75,5.58.84,1.11,3.21,3.45,3.49,3.45.36,0,.12.35-1.11,1.54-7.12,6.89-16.8,11.93-26.35,13.68-3.79.71-6.16.88-10.63.8-4.22-.07-7.22-.38-10.1-1.04-1.86-.43-3-1.33-3.68-2.88-.55-1.23-.25-4.19.8-8.12,2.45-9.29,8.35-16.46,17.01-20.7,4.37-2.14,8.63-3.28,13.78-3.71,1.49-.12,6.43.07,8.13.31ZM119.97,100.72c4.12,2.37,8.5,4.9,9.72,5.61s4.8,2.78,7.93,4.59c3.15,1.82,5.75,3.4,5.78,3.49.08.27-2.24,2.63-3.28,3.35-.84.56-2.02,1.26-9.14,5.37-1.54.88-4.02,2.32-5.55,3.2-1.54.88-3.89,2.25-5.27,3.03-2.65,1.54-3.81,2.2-12.16,7.02-2.95,1.71-5.38,3.06-5.43,3.01-.03-.03.12-.61.36-1.29.65-1.76,1.36-4.74,1.64-6.89.46-3.3.28-8.71-.4-11.71-1.13-5.07-2.65-9.01-4.95-12.82-.81-1.34-.99-1.76-.81-1.86.12-.08,2.96-1.74,6.33-3.68,3.35-1.92,6.41-3.79,6.79-4.12.36-.33.75-.61.81-.63.07,0,3.49,1.94,7.62,4.32ZM92.44,101.13c5.68,6.21,9.14,13.71,10.1,21.9.28,2.34.1,7.29-.35,9.64-.94,4.99-3.11,9.69-6.41,13.86-2.09,2.65-6.43,6.54-8.2,7.34-1.62.73-3.71.25-5.12-1.19-1.26-1.31-3.48-4.16-5.07-6.56-6.21-9.34-9.24-20.54-8.53-31.55.12-1.66.31-3.73.45-4.59.3-1.94,1.24-6.34,1.39-6.61.08-.13.63-.02,1.87.38,5.15,1.69,10.4.91,14.96-2.24.65-.43,1.52-1.18,1.97-1.62q.81-.83,1.19-.53c.22.17.99.96,1.74,1.77ZM64.33,113.19l2.3,1.34.02,3.26c.02,1.81.02,3.28-.02,3.28s-1.92-1.09-4.22-2.42-4.99-2.87-5.96-3.43c-.96-.56-1.74-1.06-1.69-1.13.03-.07.76-.5,1.61-.94s2.05-1.16,2.7-1.57l1.14-.75.91.51c.5.28,1.95,1.11,3.21,1.84ZM50.1,117.81c2.42,1.39,10.14,5.85,13.25,7.65,1.37.8,2.88,1.67,3.36,1.94.6.35.89.63.96.93.91,3.98,2.07,7.65,3.3,10.48l.73,1.66-.25.78c-1.26,3.73-4.57,6.74-8.45,7.67-1.19.28-1.82.33-3.3.27-2.96-.13-2.77-.03-13.28-6.13-2.22-1.29-5.07-2.93-8.07-4.65-1.95-1.13-2.87-1.87-3.81-3.08-1.69-2.19-2.42-4.16-2.55-6.87-.1-2.19.27-3.94,1.21-5.8.61-1.23,1.94-3.05,2.29-3.13.12-.03,1.33-.22,2.68-.41,2.98-.43,6.24-1.16,8.28-1.82.83-.27,1.57-.48,1.66-.5.1,0,.99.46,1.99,1.03ZM33.82,137.71c.68.66,1.76,1.51,2.39,1.89l1.14.66-.05,1.23c-.12,2.37.8,4.85,2.42,6.63,1.23,1.33,2.6,2.2,4.29,2.72,2.5.8,5.57.36,7.77-1.09l.94-.61.93.55c.91.56,3.69,1.56,4.32,1.56.18,0,.33.05.33.1,0,.48-2.29,2.53-3.89,3.48-1.23.75-3.21,1.52-4.59,1.81-1.59.35-4.9.35-6.38,0-5.86-1.34-10.24-5.78-11.56-11.71-.4-1.82-.3-5.17.23-7.06.22-.75.4-1.36.43-1.36.02,0,.6.55,1.28,1.23ZM37.05,156.16c.56.38,1.59.98,2.27,1.29.7.31,1.26.61,1.26.66s-.13.3-.3.53c-.17.25-.75,1.23-1.28,2.19-1.13,2.04-1.29,2.24-2.1,2.75-1.18.75-2.85.35-3.69-.88-.31-.48-.41-.83-.41-1.54,0-.84.1-1.11,1.42-3.43.89-1.56,1.51-2.48,1.62-2.42.1.07.65.45,1.21.84Z"/>
  <path class="cls-1" d="M41.79,122.05c-2.96,1.09-4.6,4.04-3.94,7.16.25,1.23.88,2.4,1.69,3.15.25.25,4.52,2.77,9.47,5.63,10.05,5.78,10.14,5.81,12.16,5.48,2.09-.36,3.81-1.69,4.72-3.64.38-.81.45-1.16.45-2.52,0-1.46-.05-1.67-.55-2.68-.33-.68-.83-1.36-1.24-1.72-.38-.31-2.45-1.61-4.59-2.83-2.14-1.23-5.9-3.41-8.36-4.82-6.08-3.53-5.81-3.4-7.52-3.46-1.09-.05-1.62.02-2.29.27Z"/>
  <path class="cls-1" d="M190.03,34.1c-.46.15-1.13.5-1.46.75-.78.6-1.67,1.97-1.9,2.92-.12.53-.17,6.86-.13,21.2l.05,20.46.46.94c.5,1.03,1.37,1.9,2.47,2.48l.71.38h9.28c10.1,0,9.81.02,13.23-1.03l.99-.3-1.11-.55c-1.41-.7-2.93-2.32-3.45-3.66-.5-1.28-.6-3.16-.25-4.39.17-.53.25-.99.22-1.03s-.58.05-1.21.18c-.84.18-2.37.25-6,.25h-4.84l.03-17.52.05-17.51.38-.96c.33-.81.8-1.54,1.74-2.73.12-.15-.73-.2-4.12-.2-3.68.02-4.41.05-5.15.31Z"/>
  <path class="cls-1" d="M202.35,34.02c-2.17.61-3.74,3.06-3.54,5.5.15,1.94,1.14,3.46,2.83,4.32.76.4,1.11.45,3.41.56,5,.27,7.65,1.42,10.73,4.7,2.29,2.43,3.43,5.17,3.63,8.56.17,2.96-.48,5.65-1.95,8.13-.89,1.49-2.88,3.58-4.41,4.6-1.87,1.28-2.55,2.37-2.67,4.32-.12,1.86.27,2.93,1.46,4.12,1.51,1.52,3.58,2.04,5.43,1.34,1.44-.56,4.47-2.8,6.08-4.52,3.1-3.31,5.22-7.37,6.24-11.93.33-1.51.38-2.17.38-5.12,0-3.73-.18-5.07-1.08-7.78-2.73-8.35-10.22-14.96-18.9-16.65-1.9-.38-6.59-.5-7.65-.18Z"/>
  <path class="cls-1" d="M239.75,33.94c-.99.25-1.76.73-2.65,1.71-1.51,1.62-1.42.6-1.37,17.13l.05,14.39.46.94c.56,1.16,1.82,2.32,2.88,2.68,1.01.35,2.75.33,3.73-.02,1.16-.41,2.27-1.33,2.85-2.37.46-.83.51-1.08.58-2.68l.05-1.77,11.54-.05,11.53-.05.93-.43c1.14-.55,2.05-1.46,2.62-2.63.56-1.21.6-3.16.07-4.34-.46-1.03-1.56-2.19-2.5-2.65l-.78-.38-11.68-.08-11.68-.08-.05-7.2c-.07-8.86.05-9.57,1.64-11.48l.66-.78-4.19.02c-2.3.02-4.41.07-4.69.13Z"/>
  <path class="cls-1" d="M251.35,34.09c-1.09.38-1.81.89-2.37,1.74-.75,1.09-1.03,2-1.03,3.26,0,2.1.93,3.76,2.67,4.72l.89.5h24.02l.83-.45c.99-.53,1.9-1.44,2.43-2.45.31-.63.38-.99.38-2.32,0-1.46-.03-1.64-.51-2.48-.28-.5-.89-1.23-1.36-1.61-1.52-1.24-1.16-1.21-13.85-1.21-10.27.02-11.35.03-12.11.3Z"/>
  <path class="cls-1" d="M297.42,33.97c-4.57.68-9.24,4.29-11.23,8.71-.91,2-1.19,3.35-1.19,6.01-.02,2.63.17,3.73,1.04,5.91,1.54,3.86,5,7.11,9.06,8.51,1.29.45,3.78.81,5.57.81h1.44l-.71-.88c-2.24-2.75-2.22-6.66.07-8.99l.66-.68-1.62-.08c-1.94-.1-2.96-.53-3.93-1.66-.6-.7-1.09-1.95-1.09-2.78,0-1.54,1.14-3.28,2.62-4.01l.78-.38,12.92-.08,12.92-.08.88-.48c1.09-.61,1.94-1.52,2.47-2.7.36-.8.41-1.08.35-2.27-.05-.96-.18-1.54-.45-2.05-.46-.91-1.59-2.05-2.53-2.55l-.71-.38-13.17-.02c-7.24-.02-13.6.03-14.13.12Z"/>
  <path class="cls-1" d="M337.61,34.09c-1.09.4-1.89,1.01-2.55,1.97-.96,1.39-.98,1.51-.98,10.12v7.85l.63-.56c1.51-1.36,3.01-1.87,5.18-1.76,1.71.1,2.88.58,4.04,1.64l.76.7-.05-8.27-.05-8.27-.38-.71c-.6-1.11-1.61-2.1-2.57-2.52-1.19-.53-2.9-.61-4.04-.2Z"/>
  <path class="cls-1" d="M372.67,33.89c-8.03.96-14.51,5-18.68,11.68-4.8,7.64-4.87,17.97-.18,25.76,3.59,5.96,9.31,10.05,16.13,11.53,2.12.46,6.58.58,8.78.23,5.37-.81,10.15-3.3,14-7.2,2-2.05,2.52-2.96,2.62-4.65.12-2.24-.84-3.88-2.96-5.05-.8-.45-1.04-.5-2.3-.5-1.94,0-2.85.45-4.46,2.22-2.22,2.47-4.65,3.91-7.62,4.52-1.87.4-4.89.33-6.56-.12-4.87-1.34-8.91-5.5-10.14-10.48-.41-1.67-.36-5.18.1-6.89,1.29-4.8,5.27-8.76,10.09-10.07.98-.27,1.79-.35,3.43-.35,2.68-.02,3.68.22,6.63,1.47.1.05.17-.51.17-1.47,0-1.46.05-1.62.63-2.8,1.03-2.07,3.1-3.66,5.1-3.89l.83-.1-.46-.31c-1.86-1.28-5.65-2.73-8.25-3.2-1.46-.27-5.71-.45-6.87-.31Z"/>
  <path class="cls-1" d="M409.52,33.94c-1.47.4-2.9,1.54-3.58,2.93l-.4.81-.05,7.92-.05,7.9.88-.65c1.37-1.06,2.57-1.42,4.52-1.42,1.71.02,2.45.22,4.02,1.13.31.2,5.85,6.56,13.02,15.01,14.28,16.81,13.12,15.67,15.83,15.67,1.39,0,1.67-.05,2.42-.45.46-.25,1.19-.83,1.61-1.29,1.29-1.42,1.28-1.34,1.28-10.05,0-4.22-.03-7.67-.08-7.67s-.41.25-.83.56c-1.29.99-2.4,1.33-4.39,1.33s-3.18-.35-4.51-1.46c-.45-.36-6.28-7.12-12.94-15.01-11.18-13.2-12.19-14.36-13.04-14.79-.98-.5-2.77-.73-3.73-.46Z"/>
  <path class="cls-1" d="M442.49,33.94c-1.49.38-2.88,1.52-3.56,2.92l-.41.83v23.02l.41.8c.46.91,1.31,1.76,2.35,2.3.61.33.96.38,2.45.38s1.86-.05,2.57-.41c.45-.22,1.14-.71,1.52-1.11,1.28-1.33,1.23-.7,1.18-13.63-.05-11.06-.07-11.54-.38-12.17-.45-.91-1.66-2.09-2.63-2.55-.88-.4-2.65-.6-3.49-.36Z"/>
  <path class="cls-1" d="M387.53,39.42c-1.46.25-3,1.46-3.79,2.98-.53,1.04-.55,3.2,0,4.37.58,1.26,1.41,2.17,2.48,2.7.83.41,1.13.46,2.43.46,1.28-.02,1.61-.08,2.34-.45.94-.5,1.86-1.44,2.42-2.48.31-.6.38-.96.38-2.29s-.07-1.69-.38-2.32c-.48-.93-1.39-1.89-2.27-2.4-.55-.31-2.35-.8-2.72-.73-.05.02-.45.08-.89.15Z"/>
  <path class="cls-1" d="M409.11,53.07c-1.67.45-3.11,1.95-3.48,3.63-.13.6-.17,4.19-.13,11.79l.05,10.93.48.96c1.21,2.37,3.81,3.46,6.43,2.7,1.14-.33,2.45-1.46,3.08-2.65l.45-.84v-23.52l-.46-.8c-1.11-1.89-3.96-2.87-6.41-2.2Z"/>
  <path class="cls-1" d="M304.99,53.52c-1.41.4-2.98,2-3.38,3.43-.5,1.81-.03,3.96,1.13,5.2,1.16,1.26,2.12,1.67,3.84,1.69,1.18.02,1.56-.05,2.32-.41,1.33-.61,1.9-1.19,2.52-2.43.48-.98.55-1.24.53-2.43-.02-1.03-.1-1.51-.4-2.15-.56-1.16-1.89-2.45-2.88-2.78-.88-.3-2.82-.35-3.68-.1Z"/>
  <path class="cls-1" d="M311.83,54.03c2.32,2.37,2.34,6.53.03,9.14l-.68.76h1.64c1.84,0,2.7.3,3.68,1.21,1.81,1.71,1.77,4.77-.07,6.39-1.33,1.16-.45,1.08-14.74,1.18-12.82.08-12.92.08-13.7.45-.99.45-2.1,1.57-2.63,2.62-.58,1.19-.58,3.28,0,4.47.53,1.04,1.54,2.05,2.58,2.58l.83.4,13.07.05c11.41.03,13.27,0,14.49-.23,7.04-1.31,12.11-7.52,12.11-14.82,0-5.25-2.63-9.89-7.17-12.72-2.52-1.54-4.85-2.17-8.23-2.17h-1.89l.68.7Z"/>
  <path class="cls-1" d="M337.14,53.8c-1.09.53-2.24,1.66-2.67,2.63-.2.41-.28,1.09-.3,2.04-.02,1.19.05,1.56.41,2.32.61,1.29,1.18,1.89,2.32,2.47,1.84.91,3.93.8,5.55-.33,3.16-2.17,2.9-7.17-.45-9.01-.76-.41-1.11-.5-2.39-.55-1.37-.05-1.57-.02-2.48.43Z"/>
  <path class="cls-1" d="M377.36,53.5c-1.57.23-3.18,1.51-3.91,3.13-.5,1.08-.48,3.11,0,4.19.5,1.09,1.57,2.2,2.68,2.73l.93.46,7.17.03c4.97.02,7.35.08,7.78.22,2.15.7,3.98,2.55,4.67,4.77l.3.94.6-1.26c1.42-3.06,1.99-5.61,2-9.09,0-2.37-.03-2.62-.38-3.31-.83-1.57-2.12-2.53-3.84-2.8-1.24-.2-16.65-.22-18-.02Z"/>
  <path class="cls-1" d="M334.11,71.22l.05,8.2.41.83c1.21,2.47,3.91,3.61,6.63,2.8.7-.2,1.11-.48,1.9-1.28,1.62-1.64,1.57-1.29,1.57-10.7v-8.03l-.78.76c-1.67,1.61-3.89,2.15-6.26,1.54-1.18-.31-1.92-.73-2.87-1.64l-.71-.68.05,8.2Z"/>
  <path class="cls-1" d="M235.73,74.9l.05,4.52.46.94c.58,1.16,1.67,2.17,2.88,2.62.89.33,1.11.33,18.65.3l17.76-.05.84-.45c1.11-.58,2.29-1.9,2.65-2.98.41-1.26.27-3.11-.35-4.24-.55-.99-1.39-1.82-2.43-2.39l-.71-.38-18.14-.08-18.14-.08-.91-.41c-.5-.22-1.31-.73-1.79-1.13l-.88-.71.05,4.52Z"/>
  <path class="cls-1" d="M190.03,97.69c-1.09.4-1.89,1.01-2.55,1.97-.96,1.39-.98,1.51-.98,10.12v7.85l.63-.56c1.51-1.36,3.01-1.87,5.18-1.76,1.71.1,2.88.58,4.04,1.64l.76.7-.05-8.27-.05-8.27-.38-.71c-.6-1.11-1.61-2.1-2.57-2.52-1.19-.53-2.9-.61-4.04-.2Z"/>
  <path class="cls-1" d="M207.19,97.56c-1.69.28-2.9,1.24-3.73,2.92l-.48.98-.05,6.61-.05,6.59.78-.68c2.12-1.87,5.04-2.25,7.6-1.01.55.28,1.61,1.03,2.34,1.69.75.66,3.88,3.48,6.96,6.24,3.1,2.77,6.05,5.32,6.58,5.66,1.74,1.13,3.81,1.23,5.48.25.38-.22,3.61-3.03,7.19-6.26,3.58-3.21,6.97-6.24,7.52-6.72,1.46-1.23,2.47-1.59,4.52-1.59,1.52-.02,1.74.03,2.75.5.61.3,1.41.81,1.79,1.14l.68.61v-6.44c0-7.34-.02-7.42-1.26-8.81-1.81-2-4.77-2.39-6.97-.89-.36.25-4.75,4.11-9.72,8.58-4.99,4.46-9.08,8.12-9.09,8.12-.03,0-3.59-3.16-7.92-7.04-4.32-3.86-8.58-7.69-9.47-8.48-1.37-1.23-1.79-1.49-2.7-1.79-1.16-.35-1.51-.36-2.73-.17Z"/>
  <path class="cls-1" d="M288.36,97.62c-.98.25-1.81.78-2.52,1.56-.46.51-5.43,9.23-5.43,9.52,0,.07.17.05.38-.03.7-.27,2.35-.36,3.23-.2,1.31.27,2.55.94,3.56,1.99.8.8,2.17,3.15,10.19,17.49,6.72,11.99,9.47,16.78,9.99,17.31,1.41,1.47,3.49,2,5.53,1.41.8-.22,1.16-.46,1.99-1.29,1.29-1.31,1.64-2.22,1.54-4.07l-.07-1.26-11.25-20.12c-6.18-11.06-11.38-20.32-11.56-20.57-.8-1.08-2.7-1.97-4.16-1.94-.38,0-1.01.1-1.42.22Z"/>
  <path class="cls-1" d="M344.85,97.49c-8.03.96-14.51,5-18.68,11.68-4.8,7.64-4.87,17.97-.18,25.76,3.59,5.96,9.31,10.05,16.13,11.53,2.12.46,6.58.58,8.78.23,5.37-.81,10.15-3.3,14-7.2,2-2.05,2.52-2.96,2.62-4.65.12-2.24-.84-3.88-2.96-5.05-.8-.45-1.04-.5-2.3-.5-1.94,0-2.85.45-4.46,2.22-2.22,2.47-4.65,3.91-7.62,4.52-1.87.4-4.89.33-6.56-.12-4.87-1.34-8.91-5.5-10.14-10.48-.41-1.67-.36-5.18.1-6.89,1.29-4.8,5.27-8.76,10.09-10.07.98-.27,1.79-.35,3.43-.35,2.68-.02,3.68.22,6.63,1.47.1.05.17-.51.17-1.47,0-1.46.05-1.62.63-2.8,1.03-2.07,3.1-3.66,5.1-3.89l.83-.1-.46-.31c-1.86-1.28-5.65-2.73-8.25-3.2-1.46-.27-5.71-.45-6.87-.31Z"/>
  <path class="cls-1" d="M381.7,97.54c-.99.25-1.76.73-2.65,1.71-1.51,1.62-1.42.6-1.37,17.13l.05,14.39.46.94c.56,1.16,1.82,2.32,2.88,2.68,1.01.35,2.75.33,3.73-.02,1.16-.41,2.27-1.33,2.85-2.37.46-.83.51-1.08.58-2.68l.05-1.77,11.54-.05,11.53-.05.93-.43c1.14-.55,2.05-1.46,2.62-2.63.56-1.21.6-3.16.07-4.34-.46-1.03-1.56-2.19-2.5-2.65l-.78-.38-11.68-.08-11.68-.08-.05-7.2c-.07-8.86.05-9.57,1.64-11.48l.66-.78-4.19.02c-2.3.02-4.41.07-4.69.13Z"/>
  <path class="cls-1" d="M393.29,97.69c-1.09.38-1.81.89-2.37,1.74-.75,1.09-1.03,2-1.03,3.26,0,2.1.93,3.76,2.67,4.72l.89.5h24.02l.83-.45c.99-.53,1.9-1.44,2.43-2.45.31-.63.38-.99.38-2.32,0-1.46-.03-1.64-.51-2.48-.28-.5-.89-1.23-1.36-1.61-1.52-1.24-1.16-1.21-13.85-1.21-10.27.02-11.35.03-12.11.3Z"/>
  <path class="cls-1" d="M359.7,103.02c-1.46.25-3,1.46-3.79,2.98-.53,1.04-.55,3.2,0,4.37.58,1.26,1.41,2.17,2.48,2.7.83.41,1.13.46,2.43.46,1.28-.02,1.61-.08,2.34-.45.94-.5,1.86-1.44,2.42-2.48.31-.6.38-.96.38-2.29s-.07-1.69-.38-2.32c-.48-.93-1.39-1.89-2.27-2.4-.55-.31-2.35-.8-2.72-.73-.05.02-.45.08-.89.15Z"/>
  <path class="cls-1" d="M280.88,110.21c-.88.31-1.34.66-1.95,1.37-.45.55-13.91,24.33-15.54,27.46-.56,1.06-.61,1.28-.61,2.57,0,1.21.07,1.54.46,2.35.5,1.03,1.37,1.9,2.47,2.48.6.31.96.38,2.29.38,1.42,0,1.66-.05,2.42-.48.48-.25,1.13-.75,1.46-1.08.58-.6,15.57-27.2,15.98-28.34.27-.78.23-2.63-.08-3.53-.35-1.01-1.46-2.24-2.58-2.85-.73-.4-1.11-.5-2.29-.53-.91-.03-1.62.03-2.02.18Z"/>
  <path class="cls-1" d="M206.99,113.95c-1.56.4-2.9,1.49-3.61,2.92l-.4.81v25.34l.46.94c1.16,2.37,3.88,3.48,6.58,2.68.7-.2,1.11-.48,1.9-1.28,1.67-1.69,1.57-.71,1.57-15.02s.05-13.27-1.26-14.72c-.41-.46-1.14-1.03-1.61-1.26-.99-.48-2.63-.66-3.64-.41Z"/>
  <path class="cls-1" d="M250.27,113.94c-1.42.46-2.63,1.49-3.33,2.83l-.4.75v25.51l.46.94c.58,1.18,1.67,2.17,2.92,2.63,1.23.46,3.06.4,4.17-.15.91-.45,2.02-1.52,2.52-2.43.36-.66.36-.7.41-13.48l.03-12.8-.4-.86c-.48-1.03-1.54-2.12-2.55-2.62-.83-.4-3.05-.58-3.84-.31Z"/>
  <path class="cls-1" d="M189.57,117.4c-1.09.53-2.24,1.66-2.67,2.63-.2.41-.28,1.09-.3,2.04-.02,1.19.05,1.56.41,2.32.61,1.29,1.18,1.89,2.32,2.47,1.84.91,3.93.8,5.55-.33,3.16-2.17,2.9-7.17-.45-9.01-.76-.41-1.11-.5-2.39-.55-1.37-.05-1.57-.02-2.48.43Z"/>
  <path class="cls-1" d="M349.53,117.1c-1.57.23-3.18,1.51-3.91,3.13-.5,1.08-.48,3.11,0,4.19.5,1.09,1.57,2.2,2.68,2.73l.93.46,7.17.03c4.97.02,7.35.08,7.78.22,2.15.7,3.98,2.55,4.67,4.77l.3.94.6-1.26c1.42-3.06,1.99-5.61,2-9.09,0-2.37-.03-2.62-.38-3.31-.83-1.57-2.12-2.53-3.84-2.8-1.24-.2-16.65-.22-18-.02Z"/>
  <path class="cls-1" d="M186.53,134.82l.05,8.2.41.83c1.21,2.47,3.91,3.61,6.63,2.8.7-.2,1.11-.48,1.9-1.28,1.62-1.64,1.57-1.29,1.57-10.7v-8.03l-.78.76c-1.67,1.61-3.89,2.15-6.26,1.54-1.18-.31-1.92-.73-2.87-1.64l-.71-.68.05,8.2Z"/>
  <path class="cls-1" d="M377.67,138.5l.05,4.52.46.94c.58,1.16,1.67,2.17,2.88,2.62.89.33,1.11.33,18.65.3l17.76-.05.84-.45c1.11-.58,2.29-1.9,2.65-2.98.41-1.26.27-3.11-.35-4.24-.55-.99-1.39-1.82-2.43-2.39l-.71-.38-18.14-.08-18.14-.08-.91-.41c-.5-.22-1.31-.73-1.79-1.13l-.88-.71.05,4.52Z"/>
  <path class="cls-1" d="M340.42,164.31c-1.51.35-2.45,1.59-2.32,3.03.1,1.09.73,1.81,2.43,2.78.78.43,1.64,1.03,1.9,1.31.45.46.5.63.5,1.51,0,.93-.05,1.04-.55,1.49-.94.84-2.7.56-3.26-.51-.13-.27-.25-.6-.25-.75,0-.17-.17-.25-.5-.25h-.5v1.06c0,.6.07,1.11.13,1.16.08.05.81.17,1.62.28,2.7.35,4.24-.3,4.7-2,.48-1.77-.31-3.05-2.73-4.36-1.52-.83-2.07-1.49-2.07-2.47,0-.83.22-1.23.83-1.54,1.14-.6,2.43-.13,2.92,1.03.18.41.33.55.65.55.4,0,.41-.03.41-1.06v-1.06l-1.04-.18c-1.18-.2-2.09-.22-2.88-.02Z"/>
  <path class="cls-1" d="M381.62,165.23q-2.09,1.31-1.84,1.62c.17.2.31.17,1.01-.27,1.42-.89,1.41-.94,1.46,3.53.05,4.46.05,4.42-1.37,4.57-.58.08-.75.17-.75.4,0,.3.18.31,2.98.31s2.98-.02,2.98-.33c0-.27-.12-.33-.56-.33-.66,0-1.44-.27-1.62-.55-.07-.12-.13-2.42-.13-5.13,0-3.83-.05-4.92-.2-4.92-.12,0-.99.5-1.95,1.09Z"/>
  <path class="cls-1" d="M390.41,164.37c-1.42.46-2.32,1.79-2.34,3.41,0,2.02,1.28,3.26,3.2,3.08.51-.05,1.26-.25,1.62-.45.38-.18.71-.3.78-.25.13.15-.3,1.92-.63,2.58-.56,1.09-1.86,1.99-2.9,1.99-.46,0-.56.33-.18.65.17.15.43.15,1.03.02,2.14-.48,3.61-2.12,4.14-4.62.6-2.83-.08-5.45-1.62-6.24-.71-.36-2.22-.45-3.1-.17ZM392.8,165.17c.58.45.86,1.13.99,2.37.15,1.31-.05,1.79-.94,2.22-1.37.66-2.55.35-3.01-.81-.55-1.39-.17-3.23.8-3.83.7-.41,1.59-.4,2.17.05Z"/>
  <path class="cls-1" d="M408.66,164.39c-1.54.33-1.71.46-1.71,1.33,0,.71.02.75.48.75.38,0,.51-.1.68-.51.45-1.04,2-1.49,2.87-.81.91.73.98,2.34.13,3.66-.25.4-.99,1.34-1.64,2.1-1.62,1.87-2.85,3.74-2.85,4.34,0,.12,1.08.17,3.36.13l3.35-.05.05-1.13c.05-1.03.02-1.11-.3-1.11-.18,0-.33.07-.33.17,0,.08-.15.31-.33.5-.3.3-.55.33-2.25.33h-1.9l.3-.5c.15-.27,1.06-1.37,2.02-2.43,2.39-2.68,2.67-3.16,2.67-4.47,0-.91-.05-1.09-.5-1.59-.8-.91-2.09-1.13-4.09-.7Z"/>
  <path class="cls-1" d="M397.85,165.12c0,.45-.05,1.04-.1,1.33-.1.46-.07.51.33.51.31,0,.43-.08.43-.33,0-.18.15-.48.33-.66.3-.3.55-.33,2.42-.33,1.61,0,2.07.05,2,.2-.05.12-1.03,2.2-2.17,4.64s-2.09,4.54-2.09,4.69c0,.17.17.25.55.25h.55l2.35-5.37c1.29-2.93,2.35-5.43,2.35-5.55,0-.13-.98-.18-3.48-.18h-3.48v.81Z"/>
  <polygon class="cls-1" points="347 165.22 347 165.96 347.74 165.96 348.49 165.96 348.49 165.22 348.49 164.47 347.74 164.47 347 164.47 347 165.22"/>
  <path class="cls-1" d="M354.45,167.7c-.31.15-.83.5-1.11.78l-.55.53v-1.39h-1.16c-.63,0-1.16.05-1.16.12,0,.08.23.27.5.41l.5.28v3c0,2.98,0,3-.41,3.38-.23.22-.41.43-.41.5,0,.05.71.1,1.57.1,1.57,0,1.9-.13,1.18-.46-.48-.22-.6-.75-.6-2.96,0-2,.23-2.7,1.03-3.2.68-.41,1.31-.41,1.81-.02.38.31.4.41.45,3.05l.05,2.73-.41.33c-.23.18-.43.38-.43.43s.71.1,1.57.1,1.57-.05,1.57-.1-.18-.25-.41-.43c-.41-.31-.41-.36-.43-2.83-.02-2.78-.18-3.64-.83-4.12-.58-.43-1.59-.53-2.3-.22Z"/>
  <path class="cls-1" d="M362.53,167.6c-.91.3-1.57.86-2.05,1.71-.43.8-.48,1.03-.48,2.37.02,1.61.3,2.42,1.11,3.2,1.06.98,3.05.89,4.24-.22.53-.48.58-.58.38-.81-.22-.25-.27-.25-.58.03-.55.5-1.03.7-1.71.7-1.18,0-1.81-.78-1.97-2.43-.23-2.19.66-4.02,1.95-4.02.58,0,1.13.43,1.34,1.03.07.2.28.3.61.3.48,0,.5-.02.5-.81,0-.6-.07-.84-.27-.91-.5-.18-2.62-.27-3.08-.12Z"/>
  <path class="cls-1" d="M369.56,167.64c-2.32.71-3.16,4.87-1.42,6.92.75.86,1.92,1.18,3.26.86.89-.2,2.1-.91,2.1-1.24,0-.51-.38-.58-.94-.15-.36.28-.84.46-1.36.51-1.46.13-2.25-.61-2.45-2.3l-.1-.81h5.2l-.12-.88c-.13-1.18-.7-2.29-1.34-2.65s-2.07-.5-2.83-.27h0ZM371.35,168.28c.43.23.66.7.81,1.67l.13.81h-1.79c-.99,0-1.81-.07-1.81-.13,0-.56.58-1.89.94-2.17.46-.38,1.21-.45,1.71-.18Z"/>
  <path class="cls-1" d="M346,167.74c0,.08.23.27.5.41l.5.28v3c0,2.98,0,3-.41,3.38-.23.22-.41.43-.41.5,0,.05.71.1,1.57.1,1.57,0,1.9-.13,1.18-.46-.53-.23-.6-.71-.6-4.27v-3.05h-1.16c-.63,0-1.16.05-1.16.12Z"/>
</svg>